HIERARCHY
ROOT Hips
{
  OFFSET -32.5998 29.0326 120.673
  CHANNELS 6 Xposition Yposition Zposition Zrotation Xrotation Yrotation
  JOINT LeftUpLeg
  {
    OFFSET 8.64259 1.95398 -2.38835
    CHANNELS 3 Zrotation Xrotation Yrotation
    JOINT LeftLeg
    {
      OFFSET 43.7702 0 0
      CHANNELS 3 Zrotation Xrotation Yrotation
      JOINT LeftFoot
      {
        OFFSET 40.6238 0 0
        CHANNELS 3 Zrotation Xrotation Yrotation
        JOINT LeftToeBase
        {
          OFFSET 12.7242 0 0
          CHANNELS 3 Zrotation Xrotation Yrotation
          End Site
          {
            OFFSET 0 0 0
          }
        }
      }
    }
  }
  JOINT RightUpLeg
  {
    OFFSET -8.2249 1.95398 -2.59336
    CHANNELS 3 Zrotation Xrotation Yrotation
    JOINT RightLeg
    {
      OFFSET 43.5653 0 0
      CHANNELS 3 Zrotation Xrotation Yrotation
      JOINT RightFoot
      {
        OFFSET 40.6238 0 0
        CHANNELS 3 Zrotation Xrotation Yrotation
        JOINT RightToeBase
        {
          OFFSET 12.7242 0 0
          CHANNELS 3 Zrotation Xrotation Yrotation
          End Site
          {
            OFFSET 0 0 0
          }
        }
      }
    }
  }
  JOINT Spine
  {
    OFFSET 0.165834 0.87714 6.61349
    CHANNELS 3 Zrotation Xrotation Yrotation
    JOINT Spine1
    {
      OFFSET 7.38963 1.71661e-005 0
      CHANNELS 3 Zrotation Xrotation Yrotation
      JOINT Spine2
      {
        OFFSET 11.9445 1.14441e-005 0
        CHANNELS 3 Zrotation Xrotation Yrotation
        JOINT Spine3
        {
          OFFSET 14.7254 4.19617e-005 0
          CHANNELS 3 Zrotation Xrotation Yrotation
          JOINT Spine4
          {
            OFFSET 10.9679 0 0
            CHANNELS 3 Zrotation Xrotation Yrotation
            JOINT RightShoulder
            {
              OFFSET 2.46616 -1.6653 3.69651
              CHANNELS 3 Zrotation Xrotation Yrotation
              JOINT RightArm
              {
                OFFSET 13.0012 0 0
                CHANNELS 3 Zrotation Xrotation Yrotation
                JOINT RightForeArm
                {
                  OFFSET 28.7848 1.62311e-005 0
                  CHANNELS 3 Zrotation Xrotation Yrotation
                  JOINT RightHand
                  {
                    OFFSET 26.5688 1.62095e-005 0
                    CHANNELS 3 Zrotation Xrotation Yrotation
                    End Site
                    {
                      OFFSET 0 0 0
                    }
                  }
                }
              }
            }
            JOINT LeftShoulder
            {
              OFFSET 2.38034 -1.29275 -3.7523
              CHANNELS 3 Zrotation Xrotation Yrotation
              JOINT LeftArm
              {
                OFFSET 16.3182 6.07031e-005 0
                CHANNELS 3 Zrotation Xrotation Yrotation
                JOINT LeftForeArm
                {
                  OFFSET 27.0901 0 0
                  CHANNELS 3 Zrotation Xrotation Yrotation
                  JOINT LeftHand
                  {
                    OFFSET 24.5451 1.51738e-005 0
                    CHANNELS 3 Zrotation Xrotation Yrotation
                    End Site
                    {
                      OFFSET 0 0 0
                    }
                  }
                }
              }
            }
            JOINT Neck
            {
              OFFSET 5.0226 -0.0266342 0
              CHANNELS 3 Zrotation Xrotation Yrotation
              JOINT Head
              {
                OFFSET 6.69364 2.86102e-005 0
                CHANNELS 3 Zrotation Xrotation Yrotation
                End Site
                {
                  OFFSET 0 0 0
                }
              }
            }
          }
        }
      }
    }
  }
}
MOTION
Frames:	6
Frame Time:	0.0416667
30.2681 102.115 -327.892 162.741 -82.3773 162.163 -174.029 -4.81849 90.1065 -10.9259 17.9298 0.859676 64.5492 3.20487 4.18088 26.8701 -1.13157 0.815095 171.979 -5.71754 88.2294 -11.7938 -10.4504 -0.5757 64.6431 -2.44125 0.421459 26.3173 0.629499 1.79818 0.0459082 8.11979 -90.004 10.6342 0.0896557 -0.016087 -1.03673 0.0888623 -0.0200252 -23.5719 0.0903382 0.011595 -3.55928 0.0903426 0.0115975 89.4992 -30.1768 -107.68 39.4367 -19.9761 -10.807 -15.0303 -17.35 -26.4073 -11.8256 0.193707 -7.34462 -89.1113 -50.8188 80.22 -21.2995 8.85842 -20.5099 100.464 53.7064 -100.905 8.09086 -1.94177 -24.3845 5.97997 -1.68721 -5.10521 -7.5493 -0.770563 2.41872 
30.1796 102.118 -327.877 160.528 -82.5512 160.204 -173.708 -4.15423 90.5474 -11.3752 17.2412 0.610718 64.9063 3.24604 3.24502 27.0796 -0.879188 0.43056 172.252 -5.7907 88.6555 -11.2569 -10.2258 -0.571006 64.7289 -2.65895 -0.380547 24.7368 0.717089 3.90306 0.0297593 8.08598 -90.0398 10.702 0.0409657 -0.0827646 -0.968974 0.0372842 -0.0844973 -23.5041 0.0639569 -0.0666243 -3.49148 0.063943 -0.0666356 89.2178 -30.0329 -108.292 39.5986 -19.679 -10.3042 -15.1747 -17.3334 -26.6538 -11.3636 0.057518 -5.98374 -89.5662 -51.0153 79.5853 -22.7336 6.6061 -19.0529 102.849 51.64 -102.549 7.03013 -1.8023 -24.9864 5.72388 -1.78146 -5.26377 -7.48425 -0.849659 2.5873 
30.2816 102.133 -327.858 164.594 -82.4124 163.951 -173.855 -4.70077 90.0618 -10.9602 15.9944 0.599119 64.7991 3.12381 2.87019 26.8891 -0.894676 0.280788 171.852 -5.86377 88.0928 -11.5782 -10.8948 -0.55294 65.2836 -3.07799 -0.911354 23.1211 0.84092 5.77392 0.0615343 8.12751 -90.0084 10.6188 0.118717 -0.0275258 -1.05211 0.117391 -0.032729 -23.5873 0.121503 0.00942516 -3.57465 0.121498 0.00941618 89.1966 -29.9118 -108.383 39.4677 -20.0038 -10.4603 -14.8466 -16.9436 -26.3164 -11.6751 0.176209 -7.19417 -89.5905 -51.2423 79.5954 -20.4708 9.5891 -20.6273 96.6051 55.1347 -97.3818 7.88409 -1.80874 -23.3351 5.52585 -1.87508 -5.35395 -7.17143 -0.930517 2.68773 
30.1559 102.136 -327.863 164.311 -82.9514 164.089 -173.582 -4.00538 90.6594 -11.2858 16.1626 0.46132 65.0102 3.1903 2.98401 26.6953 -0.789206 -0.152196 172.412 -5.84361 88.795 -10.8409 -10.345 -0.623862 64.935 -2.92202 -0.791242 23.3243 0.686785 6.01271 0.0659242 8.08136 -90.0523 10.7112 0.107238 -0.113662 -0.959751 0.102123 -0.118276 -23.4949 0.136431 -0.076179 -3.48227 0.136435 -0.076181 89.2866 -29.7837 -108.257 39.5459 -20.1947 -10.5892 -14.8755 -17.0596 -26.3532 -11.4559 0.134935 -6.80298 -89.4971 -51.2039 79.7257 -20.9094 9.47361 -18.9933 93.2743 53.1843 -93.9958 6.13126 -1.47462 -22.8158 5.76315 -1.82974 -5.22738 -7.43216 -0.890403 2.29097 
30.1678 102.124 -327.895 164.909 -83.2121 164.76 -173.556 -3.5515 90.6575 -11.5244 16.0446 0.416866 64.9831 3.14138 3.01169 27.0147 -0.736362 0.0319315 172.509 -5.55521 88.8823 -10.8543 -10.4016 -0.633926 64.955 -2.97262 -0.725981 22.7641 1.07507 5.46261 0.074362 8.05988 -90.0472 10.7542 0.12636 -0.105476 -0.91678 0.121595 -0.110952 -23.452 0.152217 -0.0626298 -3.43933 0.15222 -0.0626283 89.2051 -30.0711 -108.302 39.2496 -20.3443 -10.6685 -14.755 -16.7809 -26.3436 -11.2 0.139496 -6.89344 -89.6087 -50.96 79.5112 -20.9247 10.0952 -19.4877 88.2942 55.1549 -89.2473 5.87733 -1.35138 -21.7207 5.95915 -1.73807 -5.5168 -7.66464 -0.748544 2.50747 
30.2746 102.142 -327.845 166.549 -83.0015 166.048 -173.854 -4.06677 90.1492 -11.2083 15.0702 0.600634 65.1389 3.19673 2.46742 26.0013 -0.936115 -0.470165 172.123 -5.43677 88.3497 -11.354 -10.9187 -0.639231 65.0844 -2.99706 -0.780782 23.1139 0.939505 5.44409 0.0786265 8.08199 -89.9793 10.7099 0.166125 0.0258135 -0.96109 0.167102 0.0184658 -23.4963 0.150687 0.0745466 -3.48367 0.150687 0.0745395 89.2095 -30.4086 -108.157 39.1251 -20.5139 -10.6721 -14.6107 -16.7446 -26.2357 -11.374 0.0892601 -6.32998 -89.502 -50.3058 79.5355 -21.193 11.1182 -19.838 80.689 56.7021 -81.8484 5.11181 -1.12232 -20.0617 5.91569 -1.77901 -6.15586 -7.57007 -0.689092 3.11848 
